<?xml version="1.0" encoding="utf-8"?>
<!-- Generator: Adobe Illustrator 25.0.0, SVG Export Plug-In . SVG Version: 6.00 Build 0)  -->
<svg version="1.1" id="Camada_1" xmlns="http://www.w3.org/2000/svg" xmlns:xlink="http://www.w3.org/1999/xlink" x="0px" y="0px"
	 viewBox="0 0 512 512" style="enable-background:new 0 0 512 512;" xml:space="preserve">
<style type="text/css">
	.st0{fill:none;stroke:#FFD700;stroke-width:5;stroke-linecap:round;stroke-linejoin:round;stroke-miterlimit:1.8867;}
</style>
<g>
	<g id="Camada_x0020_1_1_">
		<g>
			<path class="st0" d="M268.52,196.33C273.03,82.5,314.25,20.6,415.34,70.44c49.84,26.9,36.74,110.85-20.69,126.38
				c-21.98,2.5-42.87-0.73-62.79-8.43c-23.35-9.23-37.58-2.94-45,15.08 M287.39,203.75c10.28-16.49,6.53-32.82-9.92-49.08
				c-50.45-38.51-54.48-78.15-19.15-118.72C299.53,0.6,340.17,9.91,370.9,53.22c46.25,66.33,8.19,117.14-71.21,160.33
				 M211.22,214.64C114.15,156.81,79.88,91.49,171.34,26.4c47.3-31.09,115.01,20.28,101.42,78.19
				c-8.23,20.57-20.97,37.38-37.22,51.29c-19.07,16.05-20.4,31.49-8.35,46.41 M227.79,201.98c-9.64-16.57-25.73-20.97-47.7-14.23
				c-57.83,26.13-94.64,10.89-113.59-39.48C54.92,95.2,82.42,63.83,135.08,57.33c80.49-9.27,107.1,48.59,107.34,139.24
				 M197.87,274.48c-102.99,49.8-177.31,42.74-180.82-70.21c0.32-56.62,80.65-84.48,121.3-41.09c12.54,18.23,19.48,38.19,22.06,59.4
				c2.82,25.04,15.12,34.64,34.64,32.62 M195.05,254.68c-19.48-1.41-32.22,9.56-38.87,31.78c-10.32,62.62-43.43,84.8-95.81,72.66
				C9.79,339.36-1.05,299.08,22.7,251.62c36.78-71.9,99.44-62.26,174.73-12.62 M241.98,315.37C241.3,428.6,202.3,491.47,99.8,445.42
				c-50.77-25.08-40.69-109.48,16.13-127.02c21.9-3.31,42.87-0.85,63.07,6.17c23.79,8.43,37.82,1.53,44.52-16.94 M223.03,307.31
				c-9.88,16.94-5.61,33.23,11.49,48.95c51.78,36.7,57.26,76.13,23.39,117.95c-39.92,36.82-80.89,28.95-113.15-13.19
				c-48.87-64.96-12.02-117.3,66.58-163.52 M302.63,295.29c94.84,64.56,125.97,132.67,29.64,192.03
				c-49.28,27.9-113.43-27.86-96.05-84.72c9.6-19.96,23.39-35.93,40.53-48.71c20.2-14.84,22.5-30.2,11.25-45.97 M287.47,308.23
				c8.51,17.34,24.32,22.82,46.74,17.54c59.44-22.26,95.17-4.6,110.73,46.9c8.02,53.71-21.49,83.19-74.48,86.21
				c-80.33,3.87-103.31-54.72-98.03-144.12 M313.92,237.02c102.34-52.02,177.07-46.57,182.67,66.5
				c0.73,56.62-79.04,85.97-120.49,43.35c-12.86-18.03-20.2-37.78-23.15-58.99c-3.35-25.32-16.13-34.6-36.01-31.86 M316.95,256.42
				c19.96,1.37,32.74-9.8,39.03-32.46c9.15-62.79,41.82-85.61,94.48-74.44c50.93,18.83,62.54,58.91,39.64,106.78
				c-35.57,72.79-98.63,64.04-175.17,15.4"/>
		</g>
	</g>
</g>
</svg>
