<?xml version="1.0" encoding="utf-8"?>
<!-- Generator: Adobe Illustrator 25.2.1, SVG Export Plug-In . SVG Version: 6.00 Build 0)  -->
<svg version="1.1" id="Camada_1" xmlns="http://www.w3.org/2000/svg" xmlns:xlink="http://www.w3.org/1999/xlink" x="0px" y="0px"
	 viewBox="0 0 734.35 125.98" style="enable-background:new 0 0 734.35 125.98;" xml:space="preserve">
<style type="text/css">
	.st0{fill:none;stroke:#daa520;stroke-width:2;stroke-linecap:round;stroke-linejoin:round;stroke-miterlimit:1.8867;}
	.st1{fill:#daa520;}
	.st2{enable-background:new    ;}
</style>
<g>
	<g>
		<g id="Camada_x0020_1_1_">
			<g>
				<path class="st0" d="M81.65,48.19c1.12-28.23,11.34-43.58,36.41-31.22c12.36,6.67,9.11,27.49-5.13,31.34
					c-5.45,0.62-10.63-0.18-15.57-2.09c-5.79-2.29-9.32-0.73-11.16,3.74 M86.33,50.03c2.55-4.09,1.62-8.14-2.46-12.17
					c-12.51-9.55-13.51-19.38-4.75-29.44c10.22-8.77,20.3-6.46,27.92,4.28c11.47,16.45,2.03,29.05-17.66,39.76 M67.44,52.73
					C43.37,38.39,34.87,22.19,57.55,6.05c11.73-7.71,28.52,5.03,25.15,19.39c-2.04,5.1-5.2,9.27-9.23,12.72
					c-4.73,3.98-5.06,7.81-2.07,11.51 M71.55,49.59c-2.39-4.11-6.38-5.2-11.83-3.53c-14.34,6.48-23.47,2.7-28.17-9.79
					c-2.87-13.16,3.95-20.94,17.01-22.55c19.96-2.3,26.56,12.05,26.62,34.53 M64.13,67.57c-25.54,12.35-43.97,10.6-44.84-17.41
					c0.08-14.04,20-20.95,30.08-10.19c3.11,4.52,4.83,9.47,5.47,14.73c0.7,6.21,3.75,8.59,8.59,8.09 M63.43,62.66
					c-4.83-0.35-7.99,2.37-9.64,7.88c-2.56,15.53-10.77,21.03-23.76,18.02c-12.54-4.9-15.23-14.89-9.34-26.66
					c9.12-17.83,24.66-15.44,43.33-3.13 M75.07,77.71c-0.17,28.08-9.84,43.67-35.26,32.25c-12.59-6.22-10.09-27.15,4-31.5
					c5.43-0.82,10.63-0.21,15.64,1.53c5.9,2.09,9.38,0.38,11.04-4.2 M70.37,75.71c-2.45,4.2-1.39,8.24,2.85,12.14
					c12.84,9.1,14.2,18.88,5.8,29.25c-9.9,9.13-20.06,7.18-28.06-3.27c-12.12-16.11-2.98-29.09,16.51-40.55 M90.11,72.73
					c23.52,16.01,31.24,32.9,7.35,47.62c-12.22,6.92-28.13-6.91-23.82-21.01c2.38-4.95,5.8-8.91,10.05-12.08
					c5.01-3.68,5.58-7.49,2.79-11.4 M86.35,75.94c2.11,4.3,6.03,5.66,11.59,4.35c14.74-5.52,23.6-1.14,27.46,11.63
					c1.99,13.32-5.33,20.63-18.47,21.38c-19.92,0.96-25.62-13.57-24.31-35.74 M92.91,58.28c25.38-12.9,43.91-11.55,45.3,16.49
					c0.18,14.04-19.6,21.32-29.88,10.75c-3.19-4.47-5.01-9.37-5.74-14.63c-0.83-6.28-4-8.58-8.93-7.9 M93.66,63.09
					c4.95,0.34,8.12-2.43,9.68-8.05c2.27-15.57,10.37-21.23,23.43-18.46c12.63,4.67,15.51,14.61,9.83,26.48
					c-8.82,18.05-24.46,15.88-43.44,3.82"/>
			</g>
		</g>
	</g>
	<path class="st1" d="M194.18,48.07l-0.2-1.61c0-4.71,2.05-8.91,6.16-12.61c7.33-6.52,19.17-10.56,35.52-12.11
		c2.49-0.2,5.4-0.3,8.73-0.3s7.55,0.49,12.66,1.46c5.11,0.98,9.32,2.78,12.61,5.4c5.25,4.31,7.87,9.94,7.87,16.9
		c0,6.96-2.07,13.39-6.21,19.27c-4.14,5.89-9.4,10.44-15.79,13.67c-6.39,3.23-13.22,4.84-20.48,4.84c-7.26,0-13.15-1.72-17.66-5.15
		c-0.07,0.07-0.39,0.64-0.96,1.72c-0.57,1.08-1.16,2.12-1.77,3.13c-3.09,4.91-5.85,5.58-8.27,2.02c-1.41-2.09-2.12-4.57-2.12-7.47
		s0.3-6.39,0.91-10.49c0.07-0.4-0.2-1.35-0.81-2.83c-0.2-0.67,0.03-1.35,0.71-2.02c0.54-0.4,1.3-0.74,2.27-1.01
		c0.98-0.27,1.65-0.27,2.02,0c0.37,0.27,0.29,0.99-0.25,2.17c-0.54,1.18-0.81,2.27-0.81,3.28c0,1.01,1.04,2.51,3.13,4.49
		s3.36,3.04,3.83,3.18c1.61-3.97,5.04-11.4,10.29-22.3c0.61-1.21,0.91-2.12,0.91-2.72c0-0.61-0.07-1.08-0.2-1.41
		c0.34-1.95,2.47-5.05,6.41-9.28c3.93-4.24,7.11-6.36,9.54-6.36c0.94,0,2.12,0.32,3.53,0.96c1.41,0.64,2.22,1.53,2.42,2.67
		c0,0.4-0.03,0.62-0.1,0.66c-0.07,0.03-0.24-0.02-0.5-0.15c-0.27-0.13-0.47-0.2-0.61-0.2c-2.15,0-4.69,1.56-7.62,4.69
		c-2.93,3.13-5.84,7.21-8.73,12.26c-5.11,8.74-9.22,16.48-12.31,23.21c4.17,3.03,8.71,4.54,13.62,4.54c6.39,0,12.51-1.65,18.36-4.94
		c5.85-3.3,10.56-7.1,14.13-11.4c5.79-7.06,8.68-14.03,8.68-20.89c0-5.05-2-9.55-6-13.52c-4-3.97-10.34-6.09-19.02-6.36
		c-0.4,0-0.81,0-1.21,0c-6.86,0-14.09,1.13-21.69,3.38c-7.6,2.25-14.09,5.47-19.47,9.64c-5.38,4.17-8.07,8.51-8.07,13.02
		c0,1.14,0.35,2.15,1.06,3.03c0.71,0.87,1.45,1.48,2.22,1.82c0.77,0.34,1.75,0.71,2.93,1.11c1.18,0.4,1.95,0.69,2.32,0.86
		c0.37,0.17,0.59,0.35,0.66,0.55c0.13,0.54-0.34,0.81-1.41,0.81c-2.49-0.2-4.99-1.13-7.52-2.77c-2.52-1.65-3.78-3.58-3.78-5.8
		C194.08,48.74,194.11,48.41,194.18,48.07L194.18,48.07z M207.8,70.17c0,9.08,0.64,13.62,1.92,13.62c0.94,0,2.29-2.35,4.04-7.06
		c0.13-0.2,0.2-0.34,0.2-0.4c-0.47-0.4-1.46-1.4-2.98-2.98C209.46,71.77,208.4,70.71,207.8,70.17L207.8,70.17z M298.61,68.15
		c1.21-2.49,1.82-4.41,1.82-5.75c0-1.35-0.15-2.4-0.45-3.18c-0.3-0.77-0.17-1.43,0.4-1.97c0.57-0.54,1.3-0.74,2.17-0.61
		c1.35,0.34,2.02,1.85,2.02,4.54c0,2.69-1.58,6.22-4.74,10.59c0.07,1.82,1.01,2.72,2.83,2.72c1.82,0,4.57-1.95,8.27-5.85
		c1.75-2.02,2.84-3.33,3.28-3.94c0.44-0.61,0.82-0.82,1.16-0.66c0.34,0.17,0.51,0.32,0.51,0.45c0,0.67-1.21,2.42-3.63,5.25
		c-3.83,4.71-7.23,7.06-10.19,7.06c-1.95,0-3.33-0.84-4.14-2.52c-1.35,1.41-2.66,2.72-3.94,3.94c-2.62,2.22-5.55,3.33-8.78,3.33
		c-1.82,0-3.33-0.44-4.54-1.31c-2.35-1.41-3.53-3.93-3.53-7.57c0-3.97,1.35-8.01,4.04-12.11c1.55-2.42,3.36-4.54,5.45-6.36
		c3.3-2.89,6.42-4.34,9.38-4.34c0.74,0,1.45,0.1,2.12,0.3c2.02,0.67,3.03,1.95,3.03,3.83c0,1.55-0.4,2.32-1.21,2.32
		c-0.34-0.13-0.5-0.64-0.5-1.51c0-1.21-0.67-1.82-2.02-1.82c-2.35,0-5.38,2.15-9.08,6.46c-3.7,4.31-5.92,8.64-6.66,13.02
		c-0.13,0.74-0.2,1.56-0.2,2.47c0,0.91,0.3,1.95,0.91,3.13c0.61,1.18,1.73,1.77,3.38,1.77s3.45-0.74,5.4-2.22
		c1.95-1.48,3.7-3.36,5.25-5.65l-0.3-0.61c-0.27-1.08-0.13-1.95,0.4-2.62C297.03,68.08,297.73,67.88,298.61,68.15L298.61,68.15z
		 M348.15,27.79c0.81-1.48,1.21-2.62,1.21-3.43c0-1.41-0.57-2.12-1.71-2.12c-0.94,0-2.12,0.54-3.53,1.61
		c-5.38,4.17-10.59,10.76-15.64,19.78c-4.04,7.26-7,13.49-8.88,18.67c4.64-3.16,9.84-8.31,15.59-15.44
		C340.94,39.73,345.26,33.37,348.15,27.79z M318.08,66.33c-0.81,2.29-1.24,3.82-1.31,4.59c-0.07,0.77-0.1,1.82-0.1,3.13
		s0.34,2.51,1.01,3.58c1.14,1.82,3.06,1.95,5.75,0.4c2.02-1.08,4.57-3.04,7.67-5.9c3.09-2.86,5.48-5.47,7.16-7.82
		c0.13-0.2,0.34-0.3,0.61-0.3c0.61,0,0.77,0.44,0.5,1.31c-1.01,1.82-2.88,4.14-5.6,6.96c-2.72,2.83-5.2,5.06-7.42,6.71
		c-2.22,1.65-4.44,2.47-6.66,2.47c-5.11,0-7.67-2.49-7.67-7.47c0-0.2,0-0.4,0-0.61c0.27-4.71,2.66-11.82,7.16-21.34
		c4.51-9.52,8.58-16.7,12.21-21.54l3.13-3.93c0.74-0.87,1.82-1.95,3.23-3.23c2.69-2.56,5.47-3.83,8.32-3.83
		c2.86,0,4.79,0.87,5.8,2.62c0.34,0.61,0.5,1.48,0.5,2.62s-0.5,2.76-1.51,4.84C343.95,41.65,333.02,53.89,318.08,66.33L318.08,66.33
		z M362.18,57.05l0.5-2.02c0-1.35-0.5-2.02-1.51-2.02c-2.76,0-6.53,2.15-11.3,6.46s-7.8,8.64-9.08,13.02
		c-0.34,1.14-0.5,2.17-0.5,3.08c0,0.91,0.2,1.66,0.61,2.27c0.81,1.21,2.05,1.82,3.73,1.82c1.68,0,3.5-0.24,5.45-0.71
		c4.31-1.21,7.89-2.94,10.75-5.2c2.86-2.25,5.87-5.4,9.03-9.43c0.27-0.34,0.59-0.44,0.96-0.3c0.37,0.13,0.56,0.32,0.56,0.56
		c0,0.23-0.1,0.59-0.3,1.06c-3.23,4.37-6.61,7.92-10.14,10.65c-3.53,2.72-7.62,4.49-12.26,5.3c-1.35,0.2-2.59,0.3-3.73,0.3
		c-3.3,0-5.8-0.81-7.52-2.42c-1.71-1.61-2.57-3.4-2.57-5.35c0-1.95,0.47-4.07,1.41-6.36c1.68-3.83,5.28-7.77,10.8-11.81
		c5.52-4.04,9.89-6.05,13.12-6.05c0.81,0,1.58,0.1,2.32,0.3c1.88,0.67,2.83,1.75,2.83,3.23c0,1.01-0.37,2.15-1.11,3.43
		c-0.74,1.28-1.3,1.73-1.66,1.36C362.16,57.84,362.04,57.45,362.18,57.05L362.18,57.05z M391.94,49.89c3.63,0,5.45,1.75,5.45,5.25
		c0,1.82-0.5,3.3-1.51,4.44c-1.68,2.49-4.41,4.66-8.17,6.51c-3.77,1.85-6.96,2.88-9.59,3.08c-0.94,0.07-1.45-0.2-1.51-0.81
		c-0.07-0.27,0.02-0.44,0.25-0.5c0.24-0.07,0.42-0.1,0.56-0.1c1.55-0.13,3.53-0.87,5.95-2.22c4.51-2.42,7.8-4.91,9.89-7.47
		c0.87-1.21,1.31-2.37,1.31-3.48s-0.54-1.66-1.61-1.66c-0.87,0-2.05,0.37-3.53,1.11c-3.16,1.48-6.49,4.05-9.99,7.72
		c-3.5,3.67-5.79,7.25-6.86,10.75c-0.34,1.08-0.5,2.14-0.5,3.18c0,1.04,0.44,2.03,1.31,2.98c0.87,0.94,2.22,1.41,4.04,1.41
		c2.02,0,4.34-0.54,6.96-1.61c7.6-3.09,13.45-7.77,17.56-14.03c0.4-0.54,0.77-0.64,1.11-0.3c0.27,0.13,0.4,0.3,0.4,0.5
		c0,0.2-0.1,0.44-0.3,0.71c-2.02,3.36-4.57,6.36-7.67,8.98c-5.99,5.11-11.81,7.67-17.46,7.67c-4.84,0-8.24-1.45-10.19-4.34
		c-0.74-1.14-1.11-2.52-1.11-4.14c0-1.61,0.44-3.53,1.31-5.75c1.68-3.83,5.28-7.77,10.8-11.81
		C384.34,51.9,388.71,49.89,391.94,49.89L391.94,49.89z M475.79,27.59c0.13,0.13,0.44,0.22,0.91,0.25c0.47,0.03,0.89,0.22,1.26,0.56
		c0.37,0.34,0.94,1.45,1.71,3.33c0.77,1.88,1.16,3.45,1.16,4.69c0,1.24-0.15,2.56-0.45,3.93c-0.3,1.38-0.79,2.07-1.46,2.07
		c-1.14,0-2.09-1.33-2.83-3.99s-1.28-4.32-1.61-4.99c-1.88-3.97-3.9-6.86-6.05-8.68c-1.95-1.82-3.94-2.72-5.95-2.72
		c-0.87,0-1.75,0.17-2.62,0.5c-4.31,1.82-6.46,6.05-6.46,12.71c0,2.15,0.4,4.69,1.21,7.62c0.81,2.93,2.05,5.5,3.73,7.72
		c0.34,0.4,2.12,0.74,5.35,1.01c1.68,0.2,2.66,0.79,2.93,1.77c0.27,0.98-0.13,1.73-1.21,2.27c-0.61,0.74-2.93,0.54-6.96-0.61
		c-1.08-0.27-1.78-0.44-2.12-0.5c-3.63,0.07-7.74,0.87-12.31,2.42c-4.57,1.55-8.78,3.92-12.61,7.11c-3.83,3.19-5.75,6.71-5.75,10.54
		c0,2.89,1.18,5.23,3.53,7.01c2.35,1.78,6.14,2.67,11.35,2.67c5.21,0,11.03-0.81,17.46-2.42c6.42-1.61,11.47-3.36,15.14-5.25
		c3.67-1.88,7.28-4.54,10.85-7.97c3.57-3.43,5.35-6.39,5.35-8.88c0-0.4-0.02-0.74-0.05-1.01c-0.03-0.27,0.02-0.44,0.15-0.51
		c0.4-0.2,0.74-0.17,1.01,0.1c0.87,1.68,1.31,2.99,1.31,3.93c0,2.76-0.91,5.25-2.72,7.47c-3.16,3.83-6.73,6.86-10.7,9.08
		c-3.97,2.22-9.4,4.1-16.3,5.65c-6.89,1.55-12.63,2.32-17.2,2.32c-4.57,0-8.46-0.4-11.65-1.21c-3.19-0.81-5.97-2.42-8.32-4.84
		c-2.35-2.42-3.53-5.4-3.53-8.93c0-3.53,0.86-6.52,2.57-8.98c1.72-2.46,3.77-4.36,6.16-5.7c2.39-1.35,5.26-2.46,8.63-3.33
		c4.98-1.35,10.53-2.19,16.65-2.52c-4.37-4.98-6.96-10.73-7.77-17.25c-0.07-0.74-0.1-1.45-0.1-2.12c0-2.42,0.59-4.66,1.77-6.71
		c1.18-2.05,3.14-3.51,5.9-4.39c2.76-0.87,4.81-1.31,6.15-1.31c1.35,0,2.34,0.08,2.98,0.25c0.64,0.17,1.19,0.34,1.66,0.5
		c0.47,0.17,0.94,0.4,1.41,0.71c0.47,0.3,0.87,0.56,1.21,0.76c0.34,0.2,0.74,0.52,1.21,0.96c0.47,0.44,0.81,0.74,1.01,0.91
		c0.2,0.17,0.57,0.5,1.11,1.01c0.54,0.5,0.87,0.79,1.01,0.86C473.87,26.68,474.85,27.38,475.79,27.59L475.79,27.59z M523.42,50.59
		c1.55,0,2.32,0.82,2.32,2.47c0,1.65-0.77,3.92-2.32,6.81c-1.55,2.89-2.69,5.25-3.43,7.06c-1.28,3.09-1.92,5.57-1.92,7.42
		c0,1.85,0.27,3.08,0.81,3.68c1.01,1.08,2.39,1.13,4.14,0.15c1.75-0.98,4.19-2.86,7.32-5.65c3.13-2.79,5.63-5.53,7.52-8.22
		c0.27-0.34,0.59-0.42,0.96-0.25c0.37,0.17,0.55,0.34,0.55,0.5c0,0.17-0.07,0.35-0.2,0.55c-1.01,1.82-2.83,4.14-5.45,6.96
		c-2.62,2.83-5.15,5.1-7.57,6.81c-2.42,1.71-4.81,2.57-7.16,2.57c-2.29-0.07-3.9-0.59-4.84-1.56c-0.94-0.98-1.41-2.2-1.41-3.68
		c0-1.48,0.13-2.91,0.4-4.29c0.27-1.38,0.77-2.98,1.51-4.79c1.21-2.89,2.27-5.15,3.18-6.76c0.91-1.61,1.36-2.67,1.36-3.18
		c0-0.5-0.27-0.76-0.81-0.76c-1.08,0-3.13,1.31-6.15,3.93c-2.09,1.95-5.16,5.63-9.23,11.05c-4.07,5.41-6.37,8.29-6.91,8.63
		c-2.42,1.21-3.94,1.82-4.54,1.82c-0.61,0-0.91-0.1-0.91-0.3c0-0.2,0.07-0.49,0.2-0.86c0.13-0.37,0.79-2.2,1.97-5.5
		s2.46-6.91,3.83-10.85c1.38-3.93,2.22-6.31,2.52-7.11c0.3-0.81,0.5-1.5,0.61-2.07c0.1-0.57,0.22-1.06,0.35-1.46
		c0.13-0.4,0.39-0.86,0.76-1.36c0.37-0.5,0.86-0.77,1.46-0.81c0.61-0.03,1.38,0.03,2.32,0.2c0.94,0.17,1.41,0.59,1.41,1.26
		c0,0.47-0.37,1.5-1.11,3.08c-0.74,1.58-2.86,7.01-6.36,16.3c2.42-2.96,5.48-6.37,9.18-10.24c3.7-3.87,6.83-6.81,9.38-8.83
		C519.72,51.5,521.8,50.59,523.42,50.59L523.42,50.59z M561.86,57.05l0.5-2.02c0-1.35-0.5-2.02-1.51-2.02
		c-2.76,0-6.53,2.15-11.3,6.46c-4.78,4.31-7.8,8.64-9.08,13.02c-0.34,1.14-0.5,2.17-0.5,3.08c0,0.91,0.2,1.66,0.61,2.27
		c0.81,1.21,2.05,1.82,3.73,1.82c1.68,0,3.5-0.24,5.45-0.71c4.31-1.21,7.89-2.94,10.75-5.2c2.86-2.25,5.87-5.4,9.03-9.43
		c0.27-0.34,0.59-0.44,0.96-0.3c0.37,0.13,0.56,0.32,0.56,0.56c0,0.23-0.1,0.59-0.3,1.06c-3.23,4.37-6.61,7.92-10.14,10.65
		c-3.53,2.72-7.62,4.49-12.26,5.3c-1.35,0.2-2.59,0.3-3.73,0.3c-3.3,0-5.8-0.81-7.52-2.42c-1.71-1.61-2.57-3.4-2.57-5.35
		c0-1.95,0.47-4.07,1.41-6.36c1.68-3.83,5.28-7.77,10.8-11.81c5.52-4.04,9.89-6.05,13.12-6.05c0.81,0,1.58,0.1,2.32,0.3
		c1.88,0.67,2.83,1.75,2.83,3.23c0,1.01-0.37,2.15-1.11,3.43c-0.74,1.28-1.3,1.73-1.66,1.36C561.84,57.84,561.72,57.45,561.86,57.05
		L561.86,57.05z M573.36,80.36c-1.08,0-2.24-0.32-3.48-0.96c-1.24-0.64-2.3-1.55-3.18-2.72c-0.87-1.18-1.31-2.44-1.31-3.78
		c0-1.35,0.3-2.62,0.91-3.83c1.35-2.83,3.52-5.57,6.51-8.22c2.99-2.66,6.1-4.93,9.33-6.81c3.23-1.88,5.79-3.06,7.67-3.53
		c1.88-0.47,3.72-0.71,5.5-0.71c1.78,0,3.31,0.45,4.59,1.36c1.28,0.91,1.92,1.87,1.92,2.88c0,0.34-0.03,0.54-0.1,0.61
		c-0.07,0.07-0.24,0.03-0.5-0.1c-0.81-1.28-2.47-1.92-4.99-1.92c-2.52,0-5.38,0.82-8.58,2.47c-3.19,1.65-6.21,3.72-9.03,6.21
		c-2.35,2.22-4.42,4.73-6.21,7.52c-1.78,2.79-2.67,4.83-2.67,6.1c0,2.49,0.71,3.73,2.12,3.73c1.41,0,3.57-1.14,6.46-3.43
		c4.78-4.04,8.04-7,9.79-8.88c6.19-6.66,9.52-9.99,9.99-9.99c0.81,0,1.78,0.24,2.93,0.71c1.14,0.47,1.51,1.04,1.11,1.72
		c-3.43,4.84-5.45,9.72-6.05,14.63c-0.07,0.61-0.1,1.38-0.1,2.32c0,0.94,0.27,1.72,0.81,2.32c1.01,1.08,2.39,1.14,4.14,0.2
		c1.75-0.94,4.19-2.83,7.32-5.65c3.13-2.83,5.63-5.58,7.52-8.27c0.27-0.34,0.57-0.42,0.91-0.25c0.34,0.17,0.5,0.32,0.5,0.45
		c0,1.01-1.6,3.21-4.79,6.61c-3.2,3.4-5.63,5.7-7.32,6.91c-3.16,2.35-6.09,3.53-8.78,3.53c-2.56,0-4.27-1.28-5.15-3.83
		c-0.2-0.81-0.3-1.72-0.3-2.72c0-3.03,0.64-6.22,1.92-9.59c-0.27,0.13-1.51,1.48-3.73,4.04c-2.22,2.56-4.79,5.01-7.72,7.37
		C578.36,79.18,575.72,80.36,573.36,80.36L573.36,80.36z M642.58,50.59c1.55,0,2.32,0.82,2.32,2.47s-0.77,3.92-2.32,6.81
		c-1.55,2.89-2.69,5.25-3.43,7.06c-1.28,3.09-1.92,5.57-1.92,7.42c0,1.85,0.27,3.08,0.81,3.68c1.01,1.08,2.39,1.13,4.14,0.15
		c1.75-0.98,4.19-2.86,7.32-5.65c3.13-2.79,5.63-5.53,7.52-8.22c0.27-0.34,0.59-0.42,0.96-0.25c0.37,0.17,0.55,0.34,0.55,0.5
		c0,0.17-0.07,0.35-0.2,0.55c-1.01,1.82-2.83,4.14-5.45,6.96c-2.62,2.83-5.15,5.1-7.57,6.81c-2.42,1.71-4.81,2.57-7.16,2.57
		c-2.29-0.07-3.9-0.59-4.84-1.56c-0.94-0.98-1.41-2.2-1.41-3.68c0-1.48,0.13-2.91,0.4-4.29c0.27-1.38,0.77-2.98,1.51-4.79
		c1.21-2.89,2.27-5.15,3.18-6.76c0.91-1.61,1.36-2.67,1.36-3.18c0-0.5-0.27-0.76-0.81-0.76c-1.08,0-3.13,1.31-6.15,3.93
		c-2.09,1.95-5.16,5.63-9.23,11.05c-4.07,5.41-6.37,8.29-6.91,8.63c-2.42,1.21-3.94,1.82-4.54,1.82c-0.61,0-0.91-0.1-0.91-0.3
		c0-0.2,0.07-0.49,0.2-0.86c0.13-0.37,0.79-2.2,1.97-5.5s2.46-6.91,3.83-10.85c1.38-3.93,2.22-6.31,2.52-7.11
		c0.3-0.81,0.5-1.5,0.61-2.07c0.1-0.57,0.22-1.06,0.35-1.46c0.13-0.4,0.39-0.86,0.76-1.36c0.37-0.5,0.86-0.77,1.46-0.81
		c0.61-0.03,1.38,0.03,2.32,0.2c0.94,0.17,1.41,0.59,1.41,1.26c0,0.47-0.37,1.5-1.11,3.08c-0.74,1.58-2.86,7.01-6.36,16.3
		c2.42-2.96,5.48-6.37,9.18-10.24c3.7-3.87,6.83-6.81,9.38-8.83C638.88,51.5,640.97,50.59,642.58,50.59L642.58,50.59z M671.84,51
		c5.18-0.47,8.32-0.71,9.43-0.71c1.11,0,1.66,0.17,1.66,0.5c0,0.4-0.79,0.82-2.37,1.26c-1.58,0.44-5.43,0.99-11.55,1.67
		c-0.34,0.61-0.74,1.31-1.21,2.12c-1.01,1.61-1.55,2.59-1.61,2.93c-3.83,7.67-5.85,12.55-6.05,14.63c-0.07,0.61-0.1,1.38-0.1,2.32
		c0,0.94,0.27,1.72,0.81,2.32c0.94,1.08,2.29,1.14,4.04,0.2c1.75-0.94,4.19-2.83,7.32-5.65c3.13-2.83,5.67-5.58,7.62-8.27
		c0.27-0.34,0.61-0.4,1.01-0.2c1.01,0.47-0.74,3.13-5.25,7.97c-4.31,4.64-7.9,7.5-10.8,8.58c-1.68,0.61-3.09,0.91-4.24,0.91
		c-2.69,0-4.47-1.28-5.35-3.83c-0.13-0.47-0.2-1.04-0.2-1.72c0-2.35,1.08-5.92,3.23-10.7c-0.34,0.74-1.65,2.42-3.93,5.05
		c-0.61,0.67-1.08,0.67-1.41,0c-0.07-0.13-0.1-0.32-0.1-0.56s0.13-0.52,0.4-0.86c3.3-4.1,5.89-7.57,7.77-10.39
		c0-0.07,0.74-1.48,2.22-4.24c-0.67,0.13-1.36,0.2-2.07,0.2c-0.71,0-1.23-0.22-1.56-0.66c-0.34-0.44-0.37-0.96-0.1-1.56
		c0.47-1.08,2.25-1.68,5.35-1.82c0.07-0.13,0.2-0.2,0.4-0.2l5.05-9.38c0.27-0.54,0.57-1.09,0.91-1.66c0.34-0.57,0.59-1.01,0.76-1.31
		c0.17-0.3,0.35-0.62,0.56-0.96c0.2-0.34,0.37-0.57,0.5-0.71c0.13-0.13,0.27-0.27,0.4-0.4c0.27-0.4,1.06-0.61,2.37-0.61
		s2.2,0.37,2.67,1.11c0.2,0.27,0.3,0.72,0.3,1.36c0,0.64-0.24,1.35-0.71,2.12c-0.47,0.77-0.98,1.33-1.51,1.66
		c-0.54,0.34-0.91,0.71-1.11,1.11l-4.84,8.48L671.84,51z M699.39,68.15c1.21-2.49,1.82-4.41,1.82-5.75c0-1.35-0.15-2.4-0.45-3.18
		c-0.3-0.77-0.17-1.43,0.4-1.97c0.57-0.54,1.3-0.74,2.17-0.61c1.35,0.34,2.02,1.85,2.02,4.54c0,2.69-1.58,6.22-4.74,10.59
		c0.07,1.82,1.01,2.72,2.83,2.72c1.82,0,4.57-1.95,8.27-5.85c1.75-2.02,2.84-3.33,3.28-3.94c0.44-0.61,0.82-0.82,1.16-0.66
		c0.34,0.17,0.51,0.32,0.51,0.45c0,0.67-1.21,2.42-3.63,5.25c-3.83,4.71-7.23,7.06-10.19,7.06c-1.95,0-3.33-0.84-4.14-2.52
		c-1.35,1.41-2.66,2.72-3.94,3.94c-2.62,2.22-5.55,3.33-8.78,3.33c-1.82,0-3.33-0.44-4.54-1.31c-2.35-1.41-3.53-3.93-3.53-7.57
		c0-3.97,1.35-8.01,4.04-12.11c1.55-2.42,3.36-4.54,5.45-6.36c3.3-2.89,6.42-4.34,9.38-4.34c0.74,0,1.45,0.1,2.12,0.3
		c2.02,0.67,3.03,1.95,3.03,3.83c0,1.55-0.4,2.32-1.21,2.32c-0.34-0.13-0.5-0.64-0.5-1.51c0-1.21-0.67-1.82-2.02-1.82
		c-2.35,0-5.38,2.15-9.08,6.46c-3.7,4.31-5.92,8.64-6.66,13.02c-0.13,0.74-0.2,1.56-0.2,2.47c0,0.91,0.3,1.95,0.91,3.13
		c0.61,1.18,1.73,1.77,3.38,1.77c1.65,0,3.45-0.74,5.4-2.22c1.95-1.48,3.7-3.36,5.25-5.65l-0.3-0.61c-0.27-1.08-0.13-1.95,0.4-2.62
		C697.81,68.08,698.51,67.88,699.39,68.15L699.39,68.15z"/>
	<g class="st2">
		<path class="st1" d="M299.45,111.3c-0.03,0.09-0.08,0.17-0.14,0.22c-0.06,0.06-0.14,0.1-0.24,0.14c-0.1,0.03-0.24,0.06-0.4,0.07
			c-0.16,0.01-0.36,0.02-0.61,0.02c-0.18,0-0.34,0-0.48-0.01c-0.14,0-0.26-0.01-0.36-0.03s-0.18-0.04-0.26-0.06
			c-0.07-0.02-0.13-0.05-0.18-0.08c-0.05-0.03-0.09-0.07-0.12-0.12c-0.03-0.05-0.06-0.1-0.08-0.17l-5.27-14.99
			c-0.07-0.18-0.1-0.33-0.11-0.44c0-0.11,0.03-0.2,0.11-0.26c0.07-0.06,0.2-0.1,0.36-0.11c0.17-0.02,0.39-0.03,0.67-0.03
			c0.23,0,0.42,0.01,0.55,0.02c0.14,0.01,0.24,0.04,0.32,0.07c0.07,0.03,0.13,0.08,0.17,0.13c0.04,0.05,0.07,0.12,0.11,0.21
			l4.63,13.58h0.01l4.5-13.55c0.03-0.09,0.05-0.17,0.09-0.22c0.03-0.06,0.09-0.1,0.17-0.14c0.08-0.03,0.2-0.06,0.35-0.07
			c0.15-0.01,0.35-0.02,0.6-0.02c0.26,0,0.46,0.01,0.61,0.03c0.15,0.02,0.25,0.06,0.3,0.12c0.05,0.06,0.08,0.14,0.06,0.26
			c-0.01,0.11-0.05,0.26-0.12,0.44L299.45,111.3z"/>
		<path class="st1" d="M315.49,105.26c0,0.32-0.08,0.55-0.24,0.69c-0.16,0.14-0.35,0.21-0.56,0.21h-7.39c0,0.62,0.06,1.18,0.19,1.68
			c0.13,0.5,0.33,0.93,0.63,1.28c0.29,0.36,0.67,0.63,1.14,0.82c0.47,0.19,1.04,0.29,1.72,0.29c0.53,0,1.01-0.04,1.43-0.13
			c0.42-0.09,0.78-0.18,1.08-0.29c0.3-0.11,0.55-0.21,0.75-0.29c0.2-0.09,0.34-0.13,0.45-0.13c0.06,0,0.11,0.01,0.16,0.04
			c0.05,0.03,0.08,0.07,0.11,0.13c0.02,0.06,0.04,0.14,0.06,0.24c0.01,0.1,0.02,0.23,0.02,0.38c0,0.11,0,0.2-0.01,0.28
			c-0.01,0.08-0.02,0.15-0.03,0.21c-0.01,0.06-0.03,0.12-0.06,0.17c-0.03,0.05-0.07,0.1-0.11,0.14c-0.05,0.05-0.18,0.12-0.41,0.22
			c-0.22,0.1-0.52,0.21-0.87,0.31c-0.36,0.1-0.77,0.19-1.24,0.27c-0.47,0.08-0.97,0.12-1.5,0.12c-0.92,0-1.73-0.13-2.42-0.39
			c-0.69-0.26-1.28-0.64-1.75-1.15c-0.47-0.51-0.83-1.14-1.07-1.91c-0.24-0.76-0.36-1.65-0.36-2.67c0-0.96,0.12-1.83,0.37-2.6
			c0.25-0.77,0.61-1.42,1.08-1.96c0.47-0.54,1.04-0.95,1.7-1.23c0.66-0.29,1.41-0.43,2.23-0.43c0.88,0,1.63,0.14,2.25,0.42
			c0.62,0.28,1.13,0.66,1.53,1.14c0.4,0.48,0.69,1.04,0.88,1.68c0.19,0.64,0.28,1.33,0.28,2.06V105.26z M313.42,104.65
			c0.03-1.08-0.22-1.93-0.72-2.54c-0.51-0.62-1.26-0.92-2.25-0.92c-0.51,0-0.96,0.1-1.34,0.29c-0.38,0.19-0.71,0.44-0.97,0.76
			c-0.26,0.32-0.46,0.68-0.6,1.1c-0.14,0.42-0.22,0.86-0.24,1.32H313.42z"/>
		<path class="st1" d="M325.66,108.31c0,0.57-0.11,1.09-0.32,1.53c-0.21,0.45-0.51,0.83-0.9,1.13c-0.39,0.31-0.86,0.54-1.4,0.7
			c-0.54,0.16-1.13,0.24-1.78,0.24c-0.4,0-0.78-0.03-1.14-0.09c-0.36-0.06-0.69-0.14-0.97-0.24c-0.29-0.1-0.53-0.2-0.73-0.3
			c-0.2-0.1-0.34-0.2-0.44-0.28c-0.09-0.08-0.16-0.2-0.2-0.35c-0.04-0.15-0.06-0.35-0.06-0.61c0-0.16,0.01-0.29,0.03-0.4
			c0.02-0.11,0.04-0.2,0.06-0.26c0.02-0.07,0.06-0.11,0.11-0.14c0.05-0.03,0.1-0.04,0.16-0.04c0.09,0,0.23,0.06,0.41,0.17
			c0.18,0.11,0.4,0.23,0.66,0.37c0.26,0.13,0.57,0.26,0.93,0.37c0.36,0.11,0.77,0.17,1.23,0.17c0.35,0,0.67-0.04,0.95-0.11
			c0.28-0.07,0.53-0.18,0.74-0.33c0.21-0.14,0.37-0.33,0.48-0.55c0.11-0.22,0.17-0.49,0.17-0.8c0-0.32-0.08-0.58-0.24-0.8
			c-0.16-0.22-0.38-0.41-0.64-0.57c-0.27-0.17-0.57-0.31-0.9-0.44c-0.33-0.13-0.67-0.26-1.03-0.41c-0.35-0.14-0.7-0.3-1.04-0.48
			c-0.34-0.18-0.64-0.4-0.9-0.65c-0.27-0.26-0.48-0.57-0.64-0.92c-0.16-0.36-0.24-0.79-0.24-1.28c0-0.44,0.08-0.86,0.26-1.27
			c0.17-0.4,0.43-0.76,0.77-1.06c0.34-0.3,0.77-0.55,1.28-0.73c0.51-0.18,1.11-0.27,1.79-0.27c0.3,0,0.6,0.02,0.9,0.07
			c0.3,0.05,0.57,0.11,0.81,0.19c0.24,0.07,0.45,0.16,0.62,0.24c0.17,0.09,0.3,0.16,0.39,0.23c0.09,0.07,0.15,0.12,0.17,0.17
			c0.03,0.05,0.05,0.11,0.06,0.17c0.01,0.06,0.03,0.14,0.04,0.23c0.01,0.09,0.02,0.2,0.02,0.34c0,0.14-0.01,0.26-0.02,0.37
			c-0.01,0.1-0.03,0.19-0.06,0.26c-0.03,0.07-0.06,0.11-0.11,0.14c-0.04,0.03-0.09,0.04-0.14,0.04c-0.08,0-0.18-0.05-0.32-0.14
			c-0.14-0.09-0.32-0.19-0.55-0.29c-0.22-0.1-0.49-0.2-0.79-0.29c-0.3-0.09-0.65-0.14-1.04-0.14c-0.35,0-0.66,0.04-0.92,0.12
			c-0.27,0.08-0.48,0.19-0.66,0.34c-0.17,0.15-0.3,0.32-0.39,0.52c-0.09,0.2-0.13,0.42-0.13,0.65c0,0.32,0.08,0.6,0.25,0.82
			c0.17,0.22,0.38,0.41,0.65,0.58c0.27,0.17,0.57,0.32,0.91,0.45c0.34,0.13,0.69,0.27,1.04,0.41c0.35,0.14,0.7,0.3,1.05,0.47
			c0.34,0.17,0.65,0.39,0.92,0.64c0.27,0.25,0.48,0.55,0.64,0.9C325.58,107.41,325.66,107.83,325.66,108.31z"/>
		<path class="st1" d="M338.08,99.81c0.25,0,0.42,0.06,0.51,0.17c0.09,0.11,0.14,0.28,0.14,0.49v10.89c0,0.07-0.02,0.12-0.05,0.17
			c-0.03,0.05-0.09,0.09-0.17,0.12c-0.08,0.03-0.18,0.06-0.32,0.07c-0.13,0.02-0.29,0.03-0.49,0.03c-0.21,0-0.38-0.01-0.51-0.03
			s-0.24-0.04-0.32-0.07c-0.08-0.03-0.14-0.07-0.17-0.12c-0.03-0.05-0.05-0.1-0.05-0.17v-9.84h-5.8v6.26c0,0.77,0.11,1.36,0.34,1.75
			c0.23,0.4,0.64,0.59,1.23,0.59c0.19,0,0.36-0.02,0.51-0.06c0.15-0.04,0.28-0.08,0.4-0.12c0.12-0.04,0.22-0.08,0.3-0.12
			c0.08-0.04,0.16-0.06,0.22-0.06c0.04,0,0.08,0.01,0.12,0.03c0.04,0.02,0.07,0.06,0.09,0.12c0.02,0.06,0.04,0.14,0.06,0.24
			c0.02,0.1,0.02,0.22,0.02,0.37c0,0.24-0.02,0.43-0.05,0.57c-0.03,0.14-0.08,0.24-0.15,0.31c-0.07,0.07-0.17,0.14-0.3,0.19
			c-0.13,0.06-0.29,0.11-0.46,0.14c-0.17,0.04-0.35,0.07-0.54,0.09c-0.19,0.02-0.38,0.04-0.57,0.04c-0.58,0-1.08-0.08-1.5-0.23
			c-0.42-0.15-0.76-0.39-1.02-0.7c-0.27-0.31-0.46-0.71-0.58-1.18c-0.12-0.48-0.18-1.04-0.18-1.69v-6.56h-1.57
			c-0.12,0-0.22-0.07-0.3-0.2c-0.07-0.13-0.11-0.35-0.11-0.65c0-0.16,0.01-0.29,0.03-0.4c0.02-0.11,0.05-0.2,0.08-0.27
			c0.03-0.07,0.08-0.12,0.13-0.15c0.05-0.03,0.11-0.04,0.18-0.04h1.56v-2.67c0-0.06,0.01-0.11,0.04-0.16
			c0.03-0.05,0.08-0.09,0.16-0.13c0.08-0.04,0.18-0.06,0.32-0.08c0.13-0.02,0.3-0.02,0.5-0.02c0.21,0,0.38,0.01,0.51,0.02
			c0.13,0.02,0.24,0.04,0.31,0.08c0.08,0.04,0.13,0.08,0.16,0.13c0.03,0.05,0.05,0.1,0.05,0.16v2.67H338.08z M338.97,96.35
			c0,0.48-0.09,0.81-0.27,0.99c-0.18,0.17-0.52,0.26-1.01,0.26c-0.48,0-0.81-0.09-0.99-0.26c-0.18-0.17-0.27-0.49-0.27-0.97
			c0-0.48,0.09-0.81,0.27-0.99s0.52-0.26,1.01-0.26c0.48,0,0.81,0.09,0.99,0.26C338.88,95.55,338.97,95.87,338.97,96.35z"/>
		<path class="st1" d="M352.21,111.36c0,0.07-0.02,0.12-0.05,0.17c-0.03,0.05-0.09,0.09-0.16,0.12c-0.07,0.03-0.18,0.06-0.31,0.07
			c-0.13,0.02-0.3,0.03-0.5,0.03c-0.21,0-0.38-0.01-0.51-0.03s-0.24-0.04-0.31-0.07c-0.08-0.03-0.13-0.07-0.16-0.12
			c-0.03-0.05-0.05-0.1-0.05-0.17v-6.57c0-0.64-0.05-1.16-0.15-1.55c-0.1-0.39-0.25-0.73-0.44-1.01c-0.19-0.28-0.44-0.5-0.74-0.65
			c-0.3-0.15-0.66-0.22-1.05-0.22c-0.52,0-1.03,0.18-1.55,0.55c-0.51,0.37-1.06,0.9-1.62,1.61v7.84c0,0.07-0.02,0.12-0.05,0.17
			c-0.03,0.05-0.09,0.09-0.16,0.12c-0.07,0.03-0.18,0.06-0.31,0.07c-0.13,0.02-0.3,0.03-0.51,0.03c-0.2,0-0.37-0.01-0.5-0.03
			s-0.24-0.04-0.32-0.07c-0.08-0.03-0.13-0.07-0.16-0.12c-0.03-0.05-0.04-0.1-0.04-0.17v-11.22c0-0.07,0.01-0.12,0.04-0.17
			c0.03-0.05,0.07-0.09,0.15-0.12c0.07-0.04,0.17-0.06,0.29-0.07c0.12-0.01,0.27-0.02,0.46-0.02c0.18,0,0.33,0.01,0.46,0.02
			c0.12,0.01,0.21,0.04,0.28,0.07c0.07,0.04,0.11,0.08,0.14,0.12c0.03,0.05,0.04,0.1,0.04,0.17v1.48c0.63-0.71,1.26-1.22,1.89-1.55
			c0.63-0.33,1.26-0.49,1.9-0.49c0.75,0,1.38,0.13,1.89,0.38c0.51,0.25,0.92,0.59,1.24,1.02c0.32,0.42,0.54,0.92,0.68,1.49
			c0.14,0.57,0.21,1.25,0.21,2.05V111.36z"/>
		<path class="st1" d="M365.58,111.36c0,0.07-0.01,0.13-0.04,0.17c-0.03,0.05-0.08,0.09-0.15,0.12c-0.07,0.03-0.16,0.05-0.28,0.07
			c-0.12,0.02-0.26,0.03-0.42,0.03c-0.17,0-0.32-0.01-0.44-0.03s-0.21-0.04-0.29-0.07c-0.07-0.03-0.13-0.07-0.16-0.12
			c-0.03-0.05-0.05-0.11-0.05-0.17v-1.48c-0.59,0.64-1.2,1.14-1.84,1.5c-0.64,0.36-1.33,0.54-2.09,0.54c-0.82,0-1.53-0.16-2.11-0.48
			c-0.58-0.32-1.05-0.75-1.42-1.3c-0.36-0.54-0.63-1.18-0.79-1.92s-0.25-1.51-0.25-2.33c0-0.96,0.1-1.84,0.31-2.61
			c0.21-0.78,0.52-1.44,0.92-1.99c0.41-0.55,0.91-0.97,1.52-1.27c0.6-0.3,1.3-0.44,2.09-0.44c0.66,0,1.26,0.14,1.8,0.43
			c0.54,0.29,1.08,0.71,1.61,1.27v-6.52c0-0.06,0.01-0.11,0.04-0.17c0.03-0.05,0.09-0.1,0.17-0.12c0.08-0.03,0.19-0.05,0.32-0.07
			c0.13-0.02,0.29-0.03,0.49-0.03c0.21,0,0.38,0.01,0.51,0.03c0.13,0.02,0.24,0.05,0.31,0.07c0.08,0.03,0.13,0.07,0.17,0.12
			c0.04,0.05,0.06,0.11,0.06,0.17V111.36z M363.51,103.47c-0.56-0.69-1.09-1.22-1.61-1.58c-0.52-0.36-1.06-0.54-1.63-0.54
			c-0.52,0-0.97,0.12-1.33,0.37c-0.37,0.25-0.66,0.58-0.89,0.99c-0.23,0.41-0.39,0.87-0.5,1.38c-0.1,0.52-0.16,1.04-0.16,1.57
			c0,0.57,0.04,1.12,0.13,1.66s0.24,1.02,0.46,1.44c0.22,0.42,0.5,0.76,0.86,1.01c0.36,0.25,0.81,0.38,1.35,0.38
			c0.27,0,0.54-0.04,0.79-0.11c0.25-0.07,0.51-0.2,0.78-0.37c0.27-0.17,0.54-0.4,0.84-0.68c0.29-0.28,0.6-0.62,0.92-1.03V103.47z"/>
		<path class="st1" d="M379.82,105.63c0,0.91-0.12,1.76-0.36,2.53c-0.24,0.77-0.6,1.43-1.08,1.99c-0.48,0.56-1.08,0.99-1.79,1.3
			c-0.72,0.31-1.55,0.47-2.5,0.47c-0.92,0-1.73-0.14-2.41-0.41c-0.69-0.27-1.26-0.67-1.71-1.2s-0.8-1.16-1.02-1.91
			c-0.22-0.75-0.34-1.6-0.34-2.54c0-0.91,0.12-1.76,0.36-2.52c0.24-0.77,0.59-1.43,1.07-1.99c0.48-0.56,1.07-0.99,1.79-1.3
			c0.71-0.31,1.55-0.46,2.51-0.46c0.92,0,1.73,0.14,2.41,0.41c0.69,0.27,1.26,0.67,1.71,1.2s0.8,1.16,1.03,1.91
			C379.7,103.84,379.82,104.69,379.82,105.63z M377.69,105.76c0-0.61-0.06-1.18-0.17-1.72c-0.11-0.54-0.3-1.01-0.56-1.42
			c-0.26-0.41-0.61-0.73-1.06-0.97c-0.44-0.24-1-0.36-1.66-0.36c-0.61,0-1.14,0.11-1.58,0.32c-0.44,0.22-0.8,0.52-1.09,0.92
			c-0.28,0.4-0.5,0.86-0.63,1.4s-0.21,1.13-0.21,1.77c0,0.62,0.06,1.19,0.17,1.73s0.3,1.01,0.57,1.42c0.26,0.4,0.62,0.72,1.06,0.96
			c0.45,0.24,1,0.36,1.66,0.36c0.6,0,1.13-0.11,1.57-0.32c0.44-0.22,0.81-0.52,1.09-0.91c0.29-0.39,0.5-0.86,0.63-1.4
			C377.62,107.01,377.69,106.41,377.69,105.76z"/>
		<path class="st1" d="M397.83,100.11c0,0.03,0,0.07-0.01,0.11c0,0.04-0.01,0.08-0.02,0.12c-0.01,0.04-0.02,0.09-0.03,0.14
			c-0.01,0.05-0.03,0.1-0.04,0.16l-3.83,10.66c-0.03,0.09-0.08,0.17-0.13,0.22c-0.05,0.06-0.14,0.1-0.24,0.14s-0.25,0.06-0.41,0.07
			c-0.17,0.01-0.37,0.02-0.62,0.02c-0.25,0-0.46-0.01-0.62-0.03c-0.17-0.02-0.3-0.04-0.41-0.07c-0.1-0.03-0.18-0.08-0.24-0.14
			c-0.06-0.06-0.1-0.13-0.14-0.21l-3.82-10.66c-0.03-0.1-0.06-0.19-0.08-0.26s-0.03-0.13-0.04-0.17c0-0.04-0.01-0.07-0.01-0.09
			c0-0.07,0.02-0.12,0.05-0.17c0.03-0.05,0.09-0.09,0.17-0.12c0.08-0.03,0.18-0.05,0.31-0.06c0.13-0.01,0.29-0.01,0.48-0.01
			c0.24,0,0.43,0.01,0.58,0.02c0.15,0.01,0.26,0.04,0.34,0.07c0.08,0.03,0.14,0.07,0.17,0.12c0.04,0.05,0.07,0.11,0.11,0.19
			l3.17,9.25l0.05,0.15l0.04-0.15l3.13-9.25c0.02-0.07,0.05-0.14,0.09-0.19c0.04-0.05,0.1-0.09,0.18-0.12
			c0.08-0.03,0.19-0.06,0.32-0.07c0.14-0.01,0.32-0.02,0.54-0.02c0.19,0,0.35,0,0.47,0.01c0.12,0.01,0.22,0.03,0.29,0.06
			c0.07,0.03,0.12,0.07,0.15,0.12C397.81,99.99,397.83,100.05,397.83,100.11z"/>
		<path class="st1" d="M410.36,105.63c0,0.91-0.12,1.76-0.36,2.53c-0.24,0.77-0.6,1.43-1.08,1.99c-0.48,0.56-1.08,0.99-1.79,1.3
			c-0.72,0.31-1.55,0.47-2.5,0.47c-0.92,0-1.73-0.14-2.41-0.41c-0.69-0.27-1.26-0.67-1.71-1.2s-0.8-1.16-1.02-1.91
			c-0.22-0.75-0.34-1.6-0.34-2.54c0-0.91,0.12-1.76,0.36-2.52c0.24-0.77,0.59-1.43,1.07-1.99c0.48-0.56,1.07-0.99,1.79-1.3
			c0.71-0.31,1.55-0.46,2.51-0.46c0.92,0,1.73,0.14,2.41,0.41c0.69,0.27,1.26,0.67,1.71,1.2s0.8,1.16,1.03,1.91
			C410.24,103.84,410.36,104.69,410.36,105.63z M408.23,105.76c0-0.61-0.06-1.18-0.17-1.72c-0.11-0.54-0.3-1.01-0.56-1.42
			c-0.26-0.41-0.61-0.73-1.06-0.97c-0.44-0.24-1-0.36-1.66-0.36c-0.61,0-1.14,0.11-1.58,0.32c-0.44,0.22-0.8,0.52-1.09,0.92
			c-0.28,0.4-0.5,0.86-0.63,1.4s-0.21,1.13-0.21,1.77c0,0.62,0.06,1.19,0.17,1.73s0.3,1.01,0.57,1.42c0.26,0.4,0.62,0.72,1.06,0.96
			c0.45,0.24,1,0.36,1.66,0.36c0.6,0,1.13-0.11,1.57-0.32c0.44-0.22,0.81-0.52,1.09-0.91c0.29-0.39,0.5-0.86,0.63-1.4
			C408.16,107.01,408.23,106.41,408.23,105.76z"/>
		<path class="st1" d="M421.46,109.65c0,0.14,0,0.26-0.01,0.37c-0.01,0.1-0.02,0.19-0.04,0.26c-0.02,0.07-0.05,0.13-0.08,0.19
			c-0.03,0.05-0.1,0.13-0.2,0.24c-0.1,0.1-0.28,0.23-0.53,0.39c-0.25,0.15-0.53,0.29-0.84,0.41c-0.31,0.12-0.65,0.22-1.02,0.29
			c-0.37,0.07-0.74,0.11-1.13,0.11c-0.81,0-1.52-0.13-2.14-0.4s-1.15-0.65-1.57-1.17c-0.42-0.51-0.74-1.14-0.96-1.88
			c-0.22-0.74-0.33-1.6-0.33-2.58c0-1.11,0.14-2.06,0.41-2.85c0.27-0.79,0.64-1.44,1.11-1.95c0.47-0.51,1.02-0.88,1.66-1.13
			c0.64-0.24,1.32-0.37,2.06-0.37c0.36,0,0.7,0.03,1.04,0.1c0.34,0.07,0.65,0.15,0.93,0.26c0.28,0.11,0.53,0.23,0.75,0.37
			c0.22,0.14,0.38,0.26,0.48,0.36c0.1,0.1,0.17,0.18,0.21,0.24c0.04,0.06,0.07,0.13,0.09,0.21c0.03,0.08,0.04,0.17,0.05,0.27
			c0.01,0.1,0.01,0.22,0.01,0.37c0,0.32-0.04,0.55-0.11,0.68c-0.08,0.13-0.17,0.19-0.28,0.19c-0.12,0-0.27-0.07-0.43-0.21
			c-0.16-0.14-0.37-0.29-0.62-0.46c-0.25-0.17-0.55-0.32-0.9-0.45c-0.35-0.14-0.77-0.21-1.25-0.21c-0.99,0-1.75,0.38-2.28,1.14
			c-0.53,0.76-0.79,1.86-0.79,3.31c0,0.72,0.07,1.36,0.21,1.9c0.14,0.54,0.34,1,0.61,1.37c0.27,0.37,0.59,0.64,0.98,0.82
			c0.39,0.18,0.83,0.27,1.33,0.27c0.47,0,0.89-0.07,1.25-0.22c0.36-0.15,0.67-0.31,0.93-0.49c0.26-0.18,0.48-0.34,0.66-0.49
			c0.18-0.15,0.32-0.22,0.42-0.22c0.06,0,0.11,0.02,0.15,0.05c0.04,0.03,0.08,0.09,0.11,0.17c0.03,0.08,0.05,0.18,0.06,0.3
			C421.45,109.34,421.46,109.49,421.46,109.65z"/>
		<path class="st1" d="M433.76,105.26c0,0.32-0.08,0.55-0.24,0.69c-0.16,0.14-0.35,0.21-0.56,0.21h-7.39c0,0.62,0.06,1.18,0.19,1.68
			c0.13,0.5,0.33,0.93,0.63,1.28c0.29,0.36,0.67,0.63,1.14,0.82c0.47,0.19,1.04,0.29,1.72,0.29c0.53,0,1.01-0.04,1.43-0.13
			c0.42-0.09,0.78-0.18,1.08-0.29c0.3-0.11,0.55-0.21,0.75-0.29c0.2-0.09,0.34-0.13,0.45-0.13c0.06,0,0.11,0.01,0.16,0.04
			c0.05,0.03,0.08,0.07,0.11,0.13c0.02,0.06,0.04,0.14,0.06,0.24c0.01,0.1,0.02,0.23,0.02,0.38c0,0.11,0,0.2-0.01,0.28
			c-0.01,0.08-0.02,0.15-0.03,0.21c-0.01,0.06-0.03,0.12-0.06,0.17c-0.03,0.05-0.07,0.1-0.11,0.14c-0.05,0.05-0.18,0.12-0.41,0.22
			c-0.22,0.1-0.52,0.21-0.87,0.31c-0.36,0.1-0.77,0.19-1.24,0.27c-0.47,0.08-0.97,0.12-1.5,0.12c-0.92,0-1.73-0.13-2.42-0.39
			c-0.69-0.26-1.28-0.64-1.75-1.15c-0.47-0.51-0.83-1.14-1.07-1.91c-0.24-0.76-0.36-1.65-0.36-2.67c0-0.96,0.12-1.83,0.37-2.6
			c0.25-0.77,0.61-1.42,1.08-1.96c0.47-0.54,1.04-0.95,1.7-1.23c0.66-0.29,1.41-0.43,2.23-0.43c0.88,0,1.63,0.14,2.25,0.42
			c0.62,0.28,1.13,0.66,1.53,1.14c0.4,0.48,0.69,1.04,0.88,1.68c0.19,0.64,0.28,1.33,0.28,2.06V105.26z M427.11,97.7
			c-0.05,0.08-0.1,0.15-0.15,0.19c-0.05,0.05-0.11,0.08-0.18,0.11s-0.16,0.04-0.26,0.06c-0.1,0.01-0.23,0.02-0.39,0.02
			c-0.22,0-0.4-0.01-0.52-0.04c-0.12-0.03-0.2-0.07-0.24-0.12c-0.04-0.05-0.05-0.13-0.01-0.21c0.03-0.09,0.1-0.19,0.2-0.32
			l2.06-2.86c0.04-0.07,0.09-0.12,0.15-0.16c0.06-0.04,0.13-0.07,0.22-0.09c0.09-0.03,0.2-0.04,0.32-0.06
			c0.13-0.01,0.28-0.02,0.47-0.02c0.17,0,0.32,0.01,0.44,0.02c0.12,0.01,0.22,0.03,0.3,0.06c0.08,0.03,0.15,0.06,0.21,0.1
			c0.05,0.04,0.1,0.09,0.14,0.14l2.06,2.86c0.09,0.13,0.15,0.23,0.19,0.32c0.03,0.09,0.03,0.16-0.01,0.21
			c-0.04,0.05-0.12,0.1-0.24,0.12c-0.12,0.03-0.3,0.04-0.51,0.04c-0.17,0-0.31-0.01-0.42-0.02c-0.1-0.01-0.19-0.03-0.26-0.06
			c-0.07-0.03-0.12-0.06-0.16-0.11c-0.04-0.05-0.09-0.11-0.15-0.19l-1.62-2.24L427.11,97.7z M431.69,104.65
			c0.03-1.08-0.22-1.93-0.72-2.54c-0.51-0.62-1.26-0.92-2.25-0.92c-0.51,0-0.96,0.1-1.34,0.29c-0.38,0.19-0.71,0.44-0.97,0.76
			c-0.26,0.32-0.46,0.68-0.6,1.1c-0.14,0.42-0.22,0.86-0.24,1.32H431.69z"/>
		<path class="st1" d="M452.24,105.26c0,0.32-0.08,0.55-0.24,0.69c-0.16,0.14-0.35,0.21-0.56,0.21h-7.39c0,0.62,0.06,1.18,0.19,1.68
			c0.13,0.5,0.33,0.93,0.63,1.28c0.29,0.36,0.67,0.63,1.14,0.82c0.47,0.19,1.04,0.29,1.72,0.29c0.53,0,1.01-0.04,1.43-0.13
			c0.42-0.09,0.78-0.18,1.08-0.29c0.3-0.11,0.55-0.21,0.75-0.29c0.2-0.09,0.34-0.13,0.45-0.13c0.06,0,0.11,0.01,0.16,0.04
			c0.05,0.03,0.08,0.07,0.11,0.13c0.02,0.06,0.04,0.14,0.06,0.24c0.01,0.1,0.02,0.23,0.02,0.38c0,0.11,0,0.2-0.01,0.28
			c-0.01,0.08-0.02,0.15-0.03,0.21c-0.01,0.06-0.03,0.12-0.06,0.17c-0.03,0.05-0.07,0.1-0.11,0.14c-0.05,0.05-0.18,0.12-0.41,0.22
			c-0.22,0.1-0.52,0.21-0.87,0.31c-0.36,0.1-0.77,0.19-1.24,0.27c-0.47,0.08-0.97,0.12-1.5,0.12c-0.92,0-1.73-0.13-2.42-0.39
			c-0.69-0.26-1.28-0.64-1.75-1.15c-0.47-0.51-0.83-1.14-1.07-1.91c-0.24-0.76-0.36-1.65-0.36-2.67c0-0.96,0.12-1.83,0.37-2.6
			c0.25-0.77,0.61-1.42,1.08-1.96c0.47-0.54,1.04-0.95,1.7-1.23c0.66-0.29,1.41-0.43,2.23-0.43c0.88,0,1.63,0.14,2.25,0.42
			c0.62,0.28,1.13,0.66,1.53,1.14c0.4,0.48,0.69,1.04,0.88,1.68c0.19,0.64,0.28,1.33,0.28,2.06V105.26z M450.17,104.65
			c0.03-1.08-0.22-1.93-0.72-2.54c-0.51-0.62-1.26-0.92-2.25-0.92c-0.51,0-0.96,0.1-1.34,0.29c-0.38,0.19-0.71,0.44-0.97,0.76
			c-0.26,0.32-0.46,0.68-0.6,1.1c-0.14,0.42-0.22,0.86-0.24,1.32H450.17z"/>
		<path class="st1" d="M472.02,111.36c0,0.07-0.02,0.12-0.05,0.17c-0.03,0.05-0.09,0.09-0.16,0.12c-0.07,0.03-0.18,0.06-0.31,0.07
			s-0.3,0.03-0.5,0.03c-0.21,0-0.38-0.01-0.51-0.03s-0.24-0.04-0.32-0.07c-0.08-0.03-0.14-0.07-0.17-0.12
			c-0.03-0.05-0.05-0.1-0.05-0.17v-6.82c0-0.47-0.04-0.91-0.12-1.3c-0.08-0.39-0.22-0.73-0.4-1.01c-0.18-0.28-0.42-0.5-0.7-0.65
			c-0.28-0.15-0.62-0.22-1-0.22c-0.47,0-0.95,0.18-1.43,0.55c-0.48,0.37-1,0.9-1.58,1.61v7.84c0,0.07-0.02,0.12-0.05,0.17
			c-0.03,0.05-0.09,0.09-0.17,0.12c-0.08,0.03-0.18,0.06-0.32,0.07s-0.3,0.03-0.5,0.03c-0.19,0-0.36-0.01-0.49-0.03
			c-0.14-0.02-0.25-0.04-0.32-0.07c-0.08-0.03-0.13-0.07-0.16-0.12c-0.03-0.05-0.04-0.1-0.04-0.17v-6.82c0-0.47-0.05-0.91-0.14-1.3
			c-0.09-0.39-0.23-0.73-0.41-1.01c-0.18-0.28-0.41-0.5-0.69-0.65c-0.28-0.15-0.61-0.22-0.99-0.22c-0.47,0-0.95,0.18-1.43,0.55
			c-0.48,0.37-1.01,0.9-1.57,1.61v7.84c0,0.07-0.02,0.12-0.05,0.17c-0.03,0.05-0.09,0.09-0.16,0.12c-0.07,0.03-0.18,0.06-0.31,0.07
			c-0.13,0.02-0.3,0.03-0.51,0.03c-0.2,0-0.37-0.01-0.5-0.03c-0.13-0.02-0.24-0.04-0.32-0.07c-0.08-0.03-0.13-0.07-0.16-0.12
			c-0.03-0.05-0.04-0.1-0.04-0.17v-11.22c0-0.07,0.01-0.12,0.04-0.17c0.03-0.05,0.07-0.09,0.15-0.12c0.07-0.04,0.17-0.06,0.29-0.07
			c0.12-0.01,0.27-0.02,0.46-0.02c0.18,0,0.33,0.01,0.46,0.02c0.12,0.01,0.21,0.04,0.28,0.07c0.07,0.04,0.11,0.08,0.14,0.12
			c0.03,0.05,0.04,0.1,0.04,0.17v1.48c0.63-0.71,1.24-1.22,1.84-1.55c0.59-0.33,1.19-0.49,1.8-0.49c0.47,0,0.88,0.05,1.25,0.16
			c0.37,0.11,0.7,0.26,0.98,0.46c0.28,0.2,0.52,0.43,0.72,0.7c0.2,0.27,0.37,0.57,0.5,0.9c0.37-0.41,0.73-0.75,1.07-1.03
			c0.34-0.28,0.66-0.51,0.97-0.69c0.31-0.17,0.62-0.3,0.91-0.38c0.3-0.08,0.59-0.12,0.89-0.12c0.72,0,1.33,0.13,1.82,0.38
			c0.49,0.25,0.89,0.59,1.19,1.02c0.3,0.42,0.52,0.92,0.65,1.49c0.13,0.57,0.19,1.17,0.19,1.8V111.36z"/>
		<path class="st1" d="M490.93,100.65c0,0.29-0.04,0.5-0.12,0.63c-0.08,0.13-0.18,0.19-0.31,0.19h-1.61
			c0.29,0.3,0.49,0.63,0.61,0.99c0.12,0.36,0.17,0.74,0.17,1.13c0,0.65-0.1,1.22-0.31,1.72c-0.21,0.5-0.51,0.92-0.89,1.27
			c-0.39,0.34-0.85,0.61-1.38,0.79c-0.53,0.18-1.12,0.27-1.77,0.27c-0.46,0-0.89-0.06-1.3-0.18c-0.41-0.12-0.73-0.27-0.95-0.45
			c-0.15,0.15-0.27,0.32-0.37,0.51c-0.1,0.19-0.14,0.41-0.14,0.66c0,0.29,0.14,0.53,0.41,0.72c0.27,0.19,0.63,0.3,1.08,0.31
			l2.93,0.12c0.56,0.02,1.07,0.09,1.53,0.23c0.47,0.14,0.87,0.33,1.21,0.59c0.34,0.25,0.61,0.57,0.8,0.94
			c0.19,0.37,0.29,0.8,0.29,1.29c0,0.52-0.11,1.01-0.32,1.47c-0.22,0.47-0.55,0.87-0.99,1.23c-0.45,0.35-1.01,0.63-1.7,0.84
			c-0.69,0.2-1.5,0.31-2.44,0.31c-0.91,0-1.68-0.08-2.31-0.23c-0.64-0.15-1.16-0.36-1.56-0.63c-0.41-0.27-0.7-0.58-0.89-0.95
			c-0.18-0.37-0.27-0.77-0.27-1.2c0-0.27,0.03-0.54,0.1-0.8c0.07-0.26,0.17-0.5,0.31-0.74c0.14-0.23,0.31-0.45,0.51-0.67
			c0.2-0.21,0.44-0.42,0.7-0.63c-0.41-0.21-0.71-0.47-0.9-0.79c-0.2-0.32-0.29-0.66-0.29-1.02c0-0.51,0.1-0.96,0.31-1.36
			c0.21-0.4,0.46-0.76,0.77-1.07c-0.26-0.31-0.46-0.65-0.61-1.04c-0.15-0.39-0.22-0.85-0.22-1.4c0-0.64,0.11-1.21,0.32-1.72
			c0.22-0.51,0.52-0.94,0.9-1.28c0.38-0.35,0.84-0.62,1.38-0.8c0.54-0.19,1.12-0.28,1.75-0.28c0.34,0,0.66,0.02,0.95,0.06
			c0.29,0.04,0.57,0.09,0.83,0.16h3.39c0.14,0,0.25,0.07,0.32,0.21C490.89,100.16,490.93,100.37,490.93,100.65z M488.74,112.5
			c0-0.48-0.2-0.85-0.59-1.12c-0.4-0.26-0.93-0.4-1.6-0.42l-2.91-0.1c-0.27,0.21-0.49,0.41-0.66,0.59c-0.17,0.19-0.3,0.37-0.41,0.54
			c-0.1,0.17-0.17,0.34-0.21,0.51c-0.04,0.17-0.06,0.34-0.06,0.51c0,0.54,0.28,0.95,0.82,1.23c0.55,0.28,1.31,0.42,2.29,0.42
			c0.62,0,1.14-0.06,1.56-0.18c0.42-0.12,0.76-0.28,1.02-0.48c0.26-0.2,0.44-0.43,0.55-0.69
			C488.69,113.05,488.74,112.78,488.74,112.5z M487.71,103.61c0-0.76-0.21-1.36-0.63-1.79c-0.42-0.43-1.02-0.64-1.79-0.64
			c-0.4,0-0.75,0.07-1.04,0.2c-0.29,0.13-0.54,0.32-0.74,0.55c-0.2,0.23-0.34,0.5-0.44,0.8s-0.14,0.62-0.14,0.95
			c0,0.74,0.21,1.32,0.63,1.75c0.42,0.42,1.01,0.64,1.77,0.64c0.41,0,0.76-0.06,1.06-0.19c0.3-0.13,0.55-0.31,0.74-0.54
			s0.34-0.49,0.44-0.79C487.66,104.24,487.71,103.93,487.71,103.61z"/>
		<path class="st1" d="M500.13,100.87c0,0.18,0,0.34-0.01,0.46c-0.01,0.12-0.03,0.22-0.05,0.29c-0.02,0.07-0.06,0.12-0.09,0.16
			c-0.04,0.04-0.09,0.06-0.16,0.06s-0.15-0.02-0.24-0.06c-0.1-0.04-0.2-0.07-0.32-0.11c-0.12-0.04-0.26-0.07-0.41-0.11
			c-0.15-0.03-0.31-0.05-0.49-0.05c-0.21,0-0.41,0.04-0.61,0.13c-0.2,0.08-0.41,0.22-0.63,0.41c-0.22,0.19-0.45,0.44-0.69,0.76
			c-0.24,0.32-0.51,0.7-0.8,1.16v7.38c0,0.07-0.02,0.12-0.05,0.17c-0.03,0.05-0.09,0.09-0.16,0.12c-0.07,0.03-0.18,0.06-0.31,0.07
			c-0.13,0.02-0.3,0.03-0.51,0.03c-0.2,0-0.37-0.01-0.5-0.03c-0.13-0.02-0.24-0.04-0.32-0.07c-0.08-0.03-0.13-0.07-0.16-0.12
			c-0.03-0.05-0.04-0.1-0.04-0.17v-11.22c0-0.07,0.01-0.12,0.04-0.17c0.03-0.05,0.07-0.09,0.15-0.12c0.07-0.04,0.17-0.06,0.29-0.07
			c0.12-0.01,0.27-0.02,0.46-0.02c0.18,0,0.33,0.01,0.46,0.02c0.12,0.01,0.21,0.04,0.28,0.07c0.07,0.04,0.11,0.08,0.14,0.12
			c0.03,0.05,0.04,0.1,0.04,0.17v1.63c0.31-0.45,0.6-0.81,0.87-1.1s0.53-0.51,0.77-0.67c0.24-0.16,0.48-0.27,0.72-0.34
			c0.24-0.06,0.48-0.09,0.72-0.09c0.11,0,0.23,0.01,0.37,0.02c0.14,0.01,0.28,0.04,0.43,0.07c0.15,0.03,0.28,0.07,0.41,0.11
			c0.12,0.04,0.21,0.08,0.26,0.12c0.05,0.04,0.08,0.08,0.1,0.12c0.02,0.04,0.03,0.09,0.04,0.14c0.01,0.06,0.02,0.14,0.03,0.26
			C500.13,100.53,500.13,100.68,500.13,100.87z"/>
		<path class="st1" d="M510.4,111.37c0,0.1-0.03,0.17-0.1,0.22c-0.07,0.05-0.16,0.09-0.27,0.11c-0.12,0.03-0.29,0.04-0.51,0.04
			c-0.22,0-0.39-0.01-0.52-0.04c-0.13-0.02-0.22-0.06-0.28-0.11c-0.06-0.05-0.09-0.12-0.09-0.22v-1.12
			c-0.49,0.52-1.04,0.93-1.64,1.22c-0.6,0.29-1.24,0.44-1.91,0.44c-0.59,0-1.12-0.08-1.6-0.23c-0.48-0.15-0.88-0.38-1.22-0.67
			c-0.34-0.29-0.6-0.65-0.79-1.07c-0.19-0.42-0.28-0.91-0.28-1.45c0-0.63,0.13-1.18,0.39-1.65c0.26-0.47,0.63-0.85,1.11-1.16
			c0.48-0.31,1.07-0.54,1.77-0.69c0.7-0.15,1.48-0.23,2.36-0.23h1.55v-0.87c0-0.43-0.05-0.81-0.14-1.15
			c-0.09-0.33-0.24-0.61-0.44-0.83c-0.2-0.22-0.47-0.39-0.79-0.5c-0.32-0.11-0.72-0.17-1.2-0.17c-0.51,0-0.96,0.06-1.37,0.18
			c-0.4,0.12-0.76,0.25-1.06,0.4c-0.3,0.15-0.56,0.28-0.76,0.4c-0.2,0.12-0.36,0.18-0.46,0.18c-0.07,0-0.12-0.02-0.17-0.05
			c-0.05-0.03-0.09-0.08-0.13-0.15c-0.04-0.07-0.07-0.15-0.08-0.26c-0.02-0.1-0.02-0.22-0.02-0.34c0-0.21,0.01-0.37,0.04-0.49
			c0.03-0.12,0.1-0.23,0.21-0.34c0.11-0.11,0.3-0.24,0.58-0.38c0.28-0.15,0.59-0.28,0.95-0.4c0.36-0.12,0.75-0.22,1.17-0.3
			s0.85-0.12,1.28-0.12c0.81,0,1.49,0.09,2.06,0.27c0.57,0.18,1.02,0.45,1.37,0.8c0.35,0.35,0.6,0.79,0.76,1.32
			c0.16,0.52,0.24,1.13,0.24,1.83V111.37z M508.36,106.25h-1.76c-0.57,0-1.06,0.05-1.47,0.14c-0.42,0.1-0.76,0.24-1.04,0.42
			c-0.27,0.19-0.48,0.41-0.6,0.67c-0.13,0.26-0.19,0.56-0.19,0.9c0,0.58,0.18,1.05,0.55,1.39c0.37,0.34,0.89,0.52,1.55,0.52
			c0.54,0,1.04-0.14,1.5-0.41c0.46-0.27,0.95-0.69,1.45-1.26V106.25z"/>
		<path class="st1" d="M523.85,111.36c0,0.07-0.02,0.12-0.05,0.17c-0.03,0.05-0.09,0.09-0.16,0.12c-0.07,0.03-0.18,0.06-0.31,0.07
			c-0.13,0.02-0.3,0.03-0.5,0.03c-0.21,0-0.38-0.01-0.51-0.03s-0.24-0.04-0.31-0.07c-0.08-0.03-0.13-0.07-0.16-0.12
			c-0.03-0.05-0.05-0.1-0.05-0.17v-6.57c0-0.64-0.05-1.16-0.15-1.55c-0.1-0.39-0.25-0.73-0.44-1.01c-0.19-0.28-0.44-0.5-0.74-0.65
			c-0.3-0.15-0.66-0.22-1.05-0.22c-0.52,0-1.03,0.18-1.55,0.55c-0.51,0.37-1.06,0.9-1.62,1.61v7.84c0,0.07-0.02,0.12-0.05,0.17
			c-0.03,0.05-0.09,0.09-0.16,0.12c-0.07,0.03-0.18,0.06-0.31,0.07c-0.13,0.02-0.3,0.03-0.51,0.03c-0.2,0-0.37-0.01-0.5-0.03
			s-0.24-0.04-0.32-0.07c-0.08-0.03-0.13-0.07-0.16-0.12c-0.03-0.05-0.04-0.1-0.04-0.17v-11.22c0-0.07,0.01-0.12,0.04-0.17
			c0.03-0.05,0.07-0.09,0.15-0.12c0.07-0.04,0.17-0.06,0.29-0.07c0.12-0.01,0.27-0.02,0.46-0.02c0.18,0,0.33,0.01,0.46,0.02
			c0.12,0.01,0.21,0.04,0.28,0.07c0.07,0.04,0.11,0.08,0.14,0.12c0.03,0.05,0.04,0.1,0.04,0.17v1.48c0.63-0.71,1.26-1.22,1.89-1.55
			c0.63-0.33,1.26-0.49,1.9-0.49c0.75,0,1.38,0.13,1.89,0.38c0.51,0.25,0.92,0.59,1.24,1.02c0.32,0.42,0.54,0.92,0.68,1.49
			c0.14,0.57,0.21,1.25,0.21,2.05V111.36z"/>
		<path class="st1" d="M537.22,111.36c0,0.07-0.01,0.13-0.04,0.17c-0.03,0.05-0.08,0.09-0.15,0.12c-0.07,0.03-0.16,0.05-0.28,0.07
			c-0.12,0.02-0.26,0.03-0.42,0.03c-0.17,0-0.32-0.01-0.44-0.03c-0.12-0.02-0.21-0.04-0.29-0.07c-0.07-0.03-0.13-0.07-0.16-0.12
			s-0.05-0.11-0.05-0.17v-1.48c-0.59,0.64-1.2,1.14-1.84,1.5c-0.64,0.36-1.33,0.54-2.09,0.54c-0.82,0-1.53-0.16-2.11-0.48
			c-0.58-0.32-1.05-0.75-1.42-1.3c-0.36-0.54-0.63-1.18-0.79-1.92s-0.25-1.51-0.25-2.33c0-0.96,0.1-1.84,0.31-2.61
			c0.21-0.78,0.52-1.44,0.92-1.99c0.41-0.55,0.91-0.97,1.52-1.27c0.6-0.3,1.3-0.44,2.09-0.44c0.66,0,1.26,0.14,1.8,0.43
			c0.54,0.29,1.08,0.71,1.61,1.27v-6.52c0-0.06,0.01-0.11,0.04-0.17c0.03-0.05,0.09-0.1,0.17-0.12c0.08-0.03,0.19-0.05,0.32-0.07
			c0.13-0.02,0.29-0.03,0.49-0.03c0.21,0,0.38,0.01,0.51,0.03c0.13,0.02,0.24,0.05,0.31,0.07c0.08,0.03,0.13,0.07,0.17,0.12
			c0.04,0.05,0.06,0.11,0.06,0.17V111.36z M535.15,103.47c-0.56-0.69-1.09-1.22-1.61-1.58c-0.52-0.36-1.06-0.54-1.63-0.54
			c-0.52,0-0.97,0.12-1.33,0.37c-0.37,0.25-0.66,0.58-0.89,0.99c-0.23,0.41-0.39,0.87-0.5,1.38c-0.1,0.52-0.16,1.04-0.16,1.57
			c0,0.57,0.04,1.12,0.13,1.66c0.09,0.54,0.24,1.02,0.46,1.44c0.22,0.42,0.5,0.76,0.86,1.01c0.36,0.25,0.81,0.38,1.35,0.38
			c0.27,0,0.54-0.04,0.79-0.11c0.25-0.07,0.51-0.2,0.78-0.37c0.27-0.17,0.54-0.4,0.84-0.68c0.29-0.28,0.6-0.62,0.92-1.03V103.47z"/>
		<path class="st1" d="M550.59,105.26c0,0.32-0.08,0.55-0.24,0.69c-0.16,0.14-0.35,0.21-0.56,0.21h-7.39c0,0.62,0.06,1.18,0.19,1.68
			c0.13,0.5,0.33,0.93,0.63,1.28c0.29,0.36,0.67,0.63,1.14,0.82c0.47,0.19,1.04,0.29,1.72,0.29c0.53,0,1.01-0.04,1.43-0.13
			c0.42-0.09,0.78-0.18,1.08-0.29c0.3-0.11,0.55-0.21,0.75-0.29c0.2-0.09,0.34-0.13,0.45-0.13c0.06,0,0.11,0.01,0.16,0.04
			c0.05,0.03,0.08,0.07,0.11,0.13c0.02,0.06,0.04,0.14,0.06,0.24c0.01,0.1,0.02,0.23,0.02,0.38c0,0.11,0,0.2-0.01,0.28
			c-0.01,0.08-0.02,0.15-0.03,0.21c-0.01,0.06-0.03,0.12-0.06,0.17c-0.03,0.05-0.07,0.1-0.11,0.14c-0.05,0.05-0.18,0.12-0.41,0.22
			c-0.22,0.1-0.52,0.21-0.87,0.31c-0.36,0.1-0.77,0.19-1.24,0.27c-0.47,0.08-0.97,0.12-1.5,0.12c-0.92,0-1.73-0.13-2.42-0.39
			c-0.69-0.26-1.28-0.64-1.75-1.15c-0.47-0.51-0.83-1.14-1.07-1.91c-0.24-0.76-0.36-1.65-0.36-2.67c0-0.96,0.12-1.83,0.37-2.6
			c0.25-0.77,0.61-1.42,1.08-1.96c0.47-0.54,1.04-0.95,1.7-1.23c0.66-0.29,1.41-0.43,2.23-0.43c0.88,0,1.63,0.14,2.25,0.42
			c0.62,0.28,1.13,0.66,1.53,1.14c0.4,0.48,0.69,1.04,0.88,1.68c0.19,0.64,0.28,1.33,0.28,2.06V105.26z M548.53,104.65
			c0.03-1.08-0.22-1.93-0.72-2.54c-0.51-0.62-1.26-0.92-2.25-0.92c-0.51,0-0.96,0.1-1.34,0.29c-0.38,0.19-0.71,0.44-0.97,0.76
			c-0.26,0.32-0.46,0.68-0.6,1.1c-0.14,0.42-0.22,0.86-0.24,1.32H548.53z"/>
		<path class="st1" d="M569.08,105.26c0,0.32-0.08,0.55-0.24,0.69c-0.16,0.14-0.35,0.21-0.56,0.21h-7.39c0,0.62,0.06,1.18,0.19,1.68
			c0.13,0.5,0.33,0.93,0.63,1.28c0.29,0.36,0.67,0.63,1.14,0.82c0.47,0.19,1.04,0.29,1.72,0.29c0.53,0,1.01-0.04,1.43-0.13
			c0.42-0.09,0.78-0.18,1.08-0.29c0.3-0.11,0.55-0.21,0.75-0.29c0.2-0.09,0.34-0.13,0.45-0.13c0.06,0,0.11,0.01,0.16,0.04
			c0.05,0.03,0.08,0.07,0.11,0.13c0.02,0.06,0.04,0.14,0.06,0.24c0.01,0.1,0.02,0.23,0.02,0.38c0,0.11,0,0.2-0.01,0.28
			c-0.01,0.08-0.02,0.15-0.03,0.21c-0.01,0.06-0.03,0.12-0.06,0.17c-0.03,0.05-0.07,0.1-0.11,0.14c-0.05,0.05-0.18,0.12-0.41,0.22
			c-0.22,0.1-0.52,0.21-0.87,0.31c-0.36,0.1-0.77,0.19-1.24,0.27c-0.47,0.08-0.97,0.12-1.5,0.12c-0.92,0-1.73-0.13-2.42-0.39
			c-0.69-0.26-1.28-0.64-1.75-1.15c-0.47-0.51-0.83-1.14-1.07-1.91c-0.24-0.76-0.36-1.65-0.36-2.67c0-0.96,0.12-1.83,0.37-2.6
			c0.25-0.77,0.61-1.42,1.08-1.96c0.47-0.54,1.04-0.95,1.7-1.23c0.66-0.29,1.41-0.43,2.23-0.43c0.88,0,1.63,0.14,2.25,0.42
			c0.62,0.28,1.13,0.66,1.53,1.14c0.4,0.48,0.69,1.04,0.88,1.68c0.19,0.64,0.28,1.33,0.28,2.06V105.26z M567.01,104.65
			c0.03-1.08-0.22-1.93-0.72-2.54c-0.51-0.62-1.26-0.92-2.25-0.92c-0.51,0-0.96,0.1-1.34,0.29c-0.38,0.19-0.71,0.44-0.97,0.76
			c-0.26,0.32-0.46,0.68-0.6,1.1c-0.14,0.42-0.22,0.86-0.24,1.32H567.01z"/>
		<path class="st1" d="M579.25,108.31c0,0.57-0.11,1.09-0.32,1.53c-0.21,0.45-0.51,0.83-0.9,1.13c-0.39,0.31-0.86,0.54-1.4,0.7
			c-0.54,0.16-1.13,0.24-1.78,0.24c-0.4,0-0.78-0.03-1.14-0.09c-0.36-0.06-0.69-0.14-0.97-0.24c-0.29-0.1-0.53-0.2-0.73-0.3
			c-0.2-0.1-0.34-0.2-0.44-0.28c-0.09-0.08-0.16-0.2-0.2-0.35c-0.04-0.15-0.06-0.35-0.06-0.61c0-0.16,0.01-0.29,0.03-0.4
			c0.02-0.11,0.04-0.2,0.06-0.26c0.02-0.07,0.06-0.11,0.11-0.14c0.05-0.03,0.1-0.04,0.16-0.04c0.09,0,0.23,0.06,0.41,0.17
			c0.18,0.11,0.4,0.23,0.66,0.37c0.26,0.13,0.57,0.26,0.93,0.37c0.36,0.11,0.77,0.17,1.23,0.17c0.35,0,0.67-0.04,0.95-0.11
			c0.28-0.07,0.53-0.18,0.74-0.33c0.21-0.14,0.37-0.33,0.48-0.55c0.11-0.22,0.17-0.49,0.17-0.8c0-0.32-0.08-0.58-0.24-0.8
			c-0.16-0.22-0.38-0.41-0.64-0.57c-0.27-0.17-0.57-0.31-0.9-0.44c-0.33-0.13-0.67-0.26-1.03-0.41c-0.35-0.14-0.7-0.3-1.04-0.48
			s-0.64-0.4-0.9-0.65c-0.27-0.26-0.48-0.57-0.64-0.92c-0.16-0.36-0.24-0.79-0.24-1.28c0-0.44,0.08-0.86,0.26-1.27
			c0.17-0.4,0.43-0.76,0.77-1.06c0.34-0.3,0.77-0.55,1.28-0.73c0.51-0.18,1.11-0.27,1.79-0.27c0.3,0,0.6,0.02,0.9,0.07
			c0.3,0.05,0.57,0.11,0.81,0.19c0.24,0.07,0.45,0.16,0.62,0.24c0.17,0.09,0.3,0.16,0.39,0.23c0.09,0.07,0.15,0.12,0.17,0.17
			c0.03,0.05,0.05,0.11,0.06,0.17c0.01,0.06,0.03,0.14,0.04,0.23c0.01,0.09,0.02,0.2,0.02,0.34c0,0.14-0.01,0.26-0.02,0.37
			c-0.01,0.1-0.03,0.19-0.06,0.26c-0.03,0.07-0.06,0.11-0.11,0.14c-0.04,0.03-0.09,0.04-0.14,0.04c-0.08,0-0.18-0.05-0.32-0.14
			c-0.14-0.09-0.32-0.19-0.55-0.29c-0.22-0.1-0.49-0.2-0.79-0.29c-0.3-0.09-0.65-0.14-1.04-0.14c-0.35,0-0.66,0.04-0.92,0.12
			c-0.27,0.08-0.48,0.19-0.66,0.34c-0.17,0.15-0.3,0.32-0.39,0.52c-0.09,0.2-0.13,0.42-0.13,0.65c0,0.32,0.08,0.6,0.25,0.82
			c0.17,0.22,0.38,0.41,0.65,0.58c0.27,0.17,0.57,0.32,0.91,0.45s0.69,0.27,1.04,0.41s0.7,0.3,1.05,0.47
			c0.34,0.17,0.65,0.39,0.92,0.64c0.27,0.25,0.48,0.55,0.64,0.9C579.17,107.41,579.25,107.83,579.25,108.31z"/>
		<path class="st1" d="M591.67,99.81c0.25,0,0.42,0.06,0.51,0.17c0.09,0.11,0.14,0.28,0.14,0.49v10.89c0,0.07-0.02,0.12-0.05,0.17
			c-0.03,0.05-0.09,0.09-0.17,0.12c-0.08,0.03-0.18,0.06-0.32,0.07c-0.13,0.02-0.29,0.03-0.49,0.03c-0.21,0-0.38-0.01-0.51-0.03
			c-0.13-0.02-0.24-0.04-0.32-0.07c-0.08-0.03-0.14-0.07-0.17-0.12c-0.03-0.05-0.05-0.1-0.05-0.17v-9.84h-5.8v6.26
			c0,0.77,0.11,1.36,0.34,1.75c0.23,0.4,0.64,0.59,1.23,0.59c0.19,0,0.36-0.02,0.51-0.06c0.15-0.04,0.28-0.08,0.4-0.12
			c0.12-0.04,0.22-0.08,0.3-0.12c0.08-0.04,0.16-0.06,0.22-0.06c0.04,0,0.08,0.01,0.12,0.03c0.04,0.02,0.07,0.06,0.09,0.12
			c0.02,0.06,0.04,0.14,0.06,0.24c0.02,0.1,0.02,0.22,0.02,0.37c0,0.24-0.02,0.43-0.05,0.57c-0.03,0.14-0.08,0.24-0.15,0.31
			c-0.07,0.07-0.17,0.14-0.3,0.19c-0.13,0.06-0.29,0.11-0.46,0.14c-0.17,0.04-0.35,0.07-0.54,0.09c-0.19,0.02-0.38,0.04-0.57,0.04
			c-0.58,0-1.08-0.08-1.5-0.23c-0.42-0.15-0.76-0.39-1.02-0.7c-0.27-0.31-0.46-0.71-0.58-1.18c-0.12-0.48-0.18-1.04-0.18-1.69v-6.56
			h-1.57c-0.12,0-0.22-0.07-0.3-0.2c-0.07-0.13-0.11-0.35-0.11-0.65c0-0.16,0.01-0.29,0.03-0.4c0.02-0.11,0.05-0.2,0.08-0.27
			c0.03-0.07,0.08-0.12,0.13-0.15c0.05-0.03,0.11-0.04,0.18-0.04h1.56v-2.67c0-0.06,0.01-0.11,0.04-0.16
			c0.03-0.05,0.08-0.09,0.16-0.13c0.08-0.04,0.18-0.06,0.32-0.08c0.13-0.02,0.3-0.02,0.5-0.02c0.21,0,0.38,0.01,0.51,0.02
			c0.13,0.02,0.24,0.04,0.31,0.08c0.08,0.04,0.13,0.08,0.16,0.13c0.03,0.05,0.05,0.1,0.05,0.16v2.67H591.67z M592.56,96.35
			c0,0.48-0.09,0.81-0.27,0.99c-0.18,0.17-0.52,0.26-1.01,0.26c-0.48,0-0.81-0.09-0.99-0.26c-0.18-0.17-0.27-0.49-0.27-0.97
			c0-0.48,0.09-0.81,0.27-0.99s0.52-0.26,1.01-0.26c0.48,0,0.81,0.09,0.99,0.26C592.47,95.55,592.56,95.87,592.56,96.35z"/>
		<path class="st1" d="M598.19,111.36c0,0.07-0.02,0.12-0.05,0.17c-0.03,0.05-0.09,0.09-0.16,0.12c-0.07,0.03-0.18,0.06-0.31,0.07
			c-0.13,0.02-0.3,0.03-0.51,0.03c-0.2,0-0.37-0.01-0.5-0.03c-0.13-0.02-0.24-0.04-0.32-0.07c-0.08-0.03-0.13-0.07-0.16-0.12
			c-0.03-0.05-0.04-0.1-0.04-0.17V94.7c0-0.07,0.01-0.12,0.04-0.17c0.03-0.05,0.08-0.09,0.16-0.13c0.08-0.03,0.18-0.06,0.32-0.07
			c0.13-0.02,0.3-0.02,0.5-0.02c0.21,0,0.38,0.01,0.51,0.02c0.13,0.02,0.24,0.04,0.31,0.07c0.08,0.03,0.13,0.07,0.16,0.13
			c0.03,0.05,0.05,0.11,0.05,0.17V111.36z"/>
		<path class="st1" d="M612.43,105.63c0,0.91-0.12,1.76-0.36,2.53c-0.24,0.77-0.6,1.43-1.08,1.99c-0.48,0.56-1.08,0.99-1.79,1.3
			c-0.72,0.31-1.55,0.47-2.5,0.47c-0.92,0-1.73-0.14-2.41-0.41c-0.69-0.27-1.26-0.67-1.71-1.2c-0.46-0.52-0.8-1.16-1.02-1.91
			c-0.22-0.75-0.34-1.6-0.34-2.54c0-0.91,0.12-1.76,0.36-2.52c0.24-0.77,0.59-1.43,1.07-1.99c0.48-0.56,1.07-0.99,1.79-1.3
			c0.71-0.31,1.55-0.46,2.51-0.46c0.92,0,1.73,0.14,2.41,0.41c0.69,0.27,1.26,0.67,1.71,1.2c0.46,0.52,0.8,1.16,1.03,1.91
			C612.32,103.84,612.43,104.69,612.43,105.63z M610.3,105.76c0-0.61-0.06-1.18-0.17-1.72s-0.3-1.01-0.56-1.42
			c-0.26-0.41-0.61-0.73-1.06-0.97c-0.44-0.24-1-0.36-1.66-0.36c-0.61,0-1.14,0.11-1.58,0.32c-0.44,0.22-0.8,0.52-1.09,0.92
			c-0.28,0.4-0.5,0.86-0.63,1.4s-0.21,1.13-0.21,1.77c0,0.62,0.06,1.19,0.17,1.73s0.3,1.01,0.57,1.42c0.26,0.4,0.62,0.72,1.06,0.96
			c0.45,0.24,1,0.36,1.66,0.36c0.6,0,1.13-0.11,1.57-0.32c0.44-0.22,0.81-0.52,1.09-0.91s0.5-0.86,0.63-1.4
			C610.23,107.01,610.3,106.41,610.3,105.76z"/>
		<path class="st1" d="M619.49,110.38c0,0.27-0.02,0.5-0.06,0.68c-0.04,0.18-0.11,0.32-0.21,0.44c-0.1,0.11-0.24,0.19-0.41,0.24
			c-0.17,0.05-0.38,0.07-0.64,0.07c-0.26,0-0.47-0.02-0.64-0.07c-0.17-0.05-0.3-0.13-0.41-0.24c-0.1-0.11-0.17-0.26-0.21-0.44
			c-0.04-0.18-0.06-0.41-0.06-0.68c0-0.27,0.02-0.5,0.06-0.69c0.04-0.19,0.11-0.33,0.21-0.44c0.1-0.1,0.24-0.18,0.41-0.22
			c0.17-0.05,0.38-0.07,0.64-0.07c0.26,0,0.47,0.02,0.64,0.07c0.17,0.05,0.3,0.12,0.41,0.22c0.1,0.1,0.17,0.25,0.21,0.44
			C619.47,109.87,619.49,110.1,619.49,110.38z M619.11,107.02c0,0.07-0.01,0.12-0.04,0.17c-0.03,0.05-0.08,0.09-0.16,0.13
			c-0.08,0.03-0.17,0.06-0.29,0.07c-0.12,0.02-0.26,0.02-0.44,0.02c-0.17,0-0.32-0.01-0.44-0.02c-0.12-0.02-0.21-0.04-0.29-0.07
			c-0.07-0.03-0.13-0.07-0.16-0.13c-0.03-0.05-0.04-0.11-0.04-0.17l-0.21-11.9c-0.01-0.1,0-0.19,0.04-0.26
			c0.03-0.07,0.09-0.14,0.18-0.19c0.09-0.05,0.2-0.09,0.35-0.11c0.15-0.02,0.33-0.03,0.57-0.03c0.22,0,0.41,0.01,0.55,0.04
			c0.15,0.03,0.26,0.06,0.35,0.11c0.09,0.05,0.15,0.11,0.18,0.18c0.03,0.07,0.05,0.16,0.05,0.26L619.11,107.02z"/>
	</g>
</g>
</svg>
